{
	"asset":{
		"version":"2.0",
		"generator":"Created using the official Cinema 4D glTF Exporter 1.000x284978"
	},
	"scenes":[{
		"nodes":[0,
		2]
	}],
	"nodes":[{
		"name":"Extrude.1",
		"translation":[12.915329933166504,
		-0.15998044610023499,
		-0.1702076494693756],
		"rotation":[0.0,
		0.0,
		0.0,
		-1.0],
		"scale":[1.0,
		1.0,
		1.0],
		"children":[1]
	},
	{
		"mesh":0,
		"name":"Extrude.1"
	},
	{
		"name":"Extrude",
		"translation":[12.915329933166504,
		-0.15998044610023499,
		0.0],
		"rotation":[0.0,
		0.0,
		0.0,
		-1.0],
		"scale":[1.0,
		1.0,
		1.0],
		"children":[3]
	},
	{
		"mesh":1,
		"name":"Extrude"
	}],
	"materials":[{
		"name":"Mat",
		"pbrMetallicRoughness":{
			"baseColorFactor":[1.0,
			1.0,
			1.0,
			1.0],
			"metallicFactor":1.0,
			"roughnessFactor":0.03
		},
		"emissiveFactor":[0.0,
		0.0,
		0.0],
		"alphaMode":"OPAQUE",
		"doubleSided":false
	},
	{
		"name":"Mat.2",
		"pbrMetallicRoughness":{
			"baseColorFactor":[0.7818333333333334,
			0.22999999999999999,
			1.0,
			1.0],
			"metallicFactor":1.0,
			"roughnessFactor":0.03
		},
		"emissiveFactor":[0.0,
		0.0,
		0.0],
		"alphaMode":"OPAQUE",
		"doubleSided":false
	}],
	"meshes":[{
		"name":"Extrude.1",
		"primitives":[{
			"indices":0,
			"attributes":{
				"POSITION":1,
				"NORMAL":2,
				"TEXCOORD_0":3
			},
			"material":0
		}]
	},
	{
		"name":"Extrude",
		"primitives":[{
			"indices":4,
			"attributes":{
				"POSITION":5,
				"NORMAL":6,
				"TEXCOORD_0":7
			},
			"material":1
		}]
	}],
	"accessors":[{
		"max":[4793],
		"bufferView":0,
		"type":"SCALAR",
		"count":21018,
		"componentType":5123,
		"byteOffset":0,
		"min":[0]
	},
	{
		"max":[10.484858512878418,
		3.1234047412872316,
		0.831074059009552],
		"bufferView":1,
		"type":"VEC3",
		"count":4794,
		"componentType":5126,
		"byteOffset":0,
		"min":[-11.170441627502442,
		-3.1161930561065676,
		-0.23107405006885529]
	},
	{
		"max":[1.0,
		1.0,
		1.0],
		"bufferView":1,
		"type":"VEC3",
		"count":4794,
		"componentType":5126,
		"byteOffset":12,
		"min":[-1.0,
		-1.0,
		-1.0]
	},
	{
		"max":[1.0,
		1.0],
		"bufferView":1,
		"type":"VEC2",
		"count":4794,
		"componentType":5126,
		"byteOffset":24,
		"min":[0.0,
		0.0]
	},
	{
		"max":[11059],
		"bufferView":2,
		"type":"SCALAR",
		"count":45228,
		"componentType":5123,
		"byteOffset":0,
		"min":[0]
	},
	{
		"max":[-11.706769943237305,
		4.053081512451172,
		0.4699999988079071],
		"bufferView":3,
		"type":"VEC3",
		"count":11060,
		"componentType":5126,
		"byteOffset":0,
		"min":[-34.44561767578125,
		-3.041236400604248,
		-0.27000001072883608]
	},
	{
		"max":[0.9999995827674866,
		0.9999998807907105,
		1.0],
		"bufferView":3,
		"type":"VEC3",
		"count":11060,
		"componentType":5126,
		"byteOffset":12,
		"min":[-1.0,
		-0.9999998211860657,
		-1.0]
	},
	{
		"max":[1.0,
		1.0],
		"bufferView":3,
		"type":"VEC2",
		"count":11060,
		"componentType":5126,
		"byteOffset":24,
		"min":[0.0,
		0.0]
	}],
	"bufferViews":[{
		"buffer":0,
		"byteOffset":0,
		"byteLength":42036,
		"target":34963
	},
	{
		"buffer":0,
		"byteOffset":42036,
		"byteLength":153408,
		"target":34962,
		"byteStride":32
	},
	{
		"buffer":1,
		"byteOffset":0,
		"byteLength":90456,
		"target":34963
	},
	{
		"buffer":1,
		"byteOffset":90456,
		"byteLength":353920,
		"target":34962,
		"byteStride":32
	}],
	"buffers":[{
		"uri":"data:application/octet-stream;base64,",
		"byteLength":195444
	},
	{
		"uri":"data:application/octet-stream;base64,",
		"byteLength":444376
	}]
}